<svg xmlns="http://www.w3.org/2000/svg" viewBox="0 0 48 44"><defs><style>.cls-1{fill:#45495f;}.cls-2{fill:#1dbf73;}</style></defs><g id="Layer_2" data-name="Layer 2"><g id="Layer_1-2" data-name="Layer 1"><path class="cls-1" d="M43,0H5A4.83,4.83,0,0,0,0,4.64V35a5,5,0,0,0,5,5H7a1,1,0,0,0,0-2H5a3,3,0,0,1-3-3V5A2.87,2.87,0,0,1,4.7,2H43a3,3,0,0,1,3,3V25.59l-11,11V30a3,3,0,0,1,3-3h3a1,1,0,0,0,0-2H38a5,5,0,0,0-5,5v8H19a1,1,0,0,0,0,2H34a1,1,0,0,0,.71-.29l13-13A1,1,0,0,0,48,26V5A5,5,0,0,0,43,0Z"/><path class="cls-2" d="M13,8a1,1,0,0,0-.92.61C10,13.48,10,13.77,10,14V33a1,1,0,0,0,2,0V14.11c.1-.32.51-1.33,1-2.53.5,1.2.9,2.2,1,2.53V36H11a1,1,0,0,0-1,1v5a2,2,0,0,0,2,2h2a2,2,0,0,0,2-2V14c0-.23,0-.52-2.08-5.39A1,1,0,0,0,13,8Zm1,34H12V38h2Z"/><path class="cls-2" d="M20,30v4a1,1,0,0,0,2,0V30a3.86,3.86,0,0,1,3.7-4H28a9.94,9.94,0,0,0,7.1-2.22C37,22,38,19.42,38,16V8.42l1.3,1.29A1,1,0,0,0,40.71,8.3l-3-3a1,1,0,0,0-1.41,0l-3,3a1,1,0,0,0,0,1.41,1,1,0,0,0,1.39,0L36,8.42V16c0,2.82-.76,4.93-2.26,6.28A8.06,8.06,0,0,1,28.11,24H26a5.79,5.79,0,0,0-6,5.57Z"/><path class="cls-1" d="M26.3,19.71a1,1,0,0,0,1.41,0L29,18.42l1.3,1.29a1,1,0,0,0,1.41-1.41L30.42,17l1.29-1.29a1,1,0,0,0,0-1.41,1,1,0,0,0-1.39,0L29,15.59,27.71,14.3a1,1,0,0,0-1.41,1.41L27.59,17,26.3,18.3A1,1,0,0,0,26.3,19.71Z"/><path class="cls-1" d="M19.3,11.71a1,1,0,0,0,1.41,0L22,10.42l1.3,1.29a1,1,0,0,0,1.41-1.41L23.42,9l1.29-1.29a1,1,0,0,0,0-1.41,1,1,0,0,0-1.39,0L22,7.59,20.71,6.3A1,1,0,0,0,19.3,7.71L20.59,9,19.3,10.3A1,1,0,0,0,19.3,11.71Z"/></g></g></svg>