<svg xmlns="http://www.w3.org/2000/svg" viewBox="0 0 61.88 56.84"><defs><style>.cls-1{fill:#45495f;}.cls-2{fill:#1dbf73;}</style></defs><g id="Layer_2" data-name="Layer 2"><g id="Layer_1-2" data-name="Layer 1"><path class="cls-1" d="M6.42,0A2.86,2.86,0,0,0,3.57,2.85v38.4A2.86,2.86,0,0,0,6.42,44.1H55.69a2.87,2.87,0,0,0,2.85-2.85V2.85A2.87,2.87,0,0,0,55.69,0ZM56.71,2.85v38.4a1,1,0,0,1-1,1H6.42a1,1,0,0,1-1-1V2.85a1,1,0,0,1,1-1H55.69a1,1,0,0,1,1,1Z"/><path class="cls-1" d="M58.94,45.75H39.32a1,1,0,0,0-.73.33l-3.53,4H26.83l-3.54-4a1,1,0,0,0-.73-.33H3a3.15,3.15,0,0,0-2.3.88A2.76,2.76,0,0,0,0,48.94c0,.32.64,7.9,16.16,7.9H45.68c15.53,0,16.15-7.58,16.16-7.85a2.85,2.85,0,0,0-.68-2.36A3.18,3.18,0,0,0,58.94,45.75Zm1,3.08c0,.06-.52,6.07-14.24,6.07H16.2c-13.55,0-14.26-6-14.26-6.12A1,1,0,0,1,2.1,48a1.2,1.2,0,0,1,.84-.27H22.13l3.54,4a.94.94,0,0,0,.72.33h9.1a1,1,0,0,0,.73-.33l3.53-4H58.94a1.33,1.33,0,0,1,.81.28A1.1,1.1,0,0,1,59.94,48.83Z"/><path class="cls-2" d="M43.27,49.61,41.46,51.8a.9.9,0,0,0,.11,1.28h0a.87.87,0,0,0,.58.22.91.91,0,0,0,.71-.34l1.81-2.18a.92.92,0,0,0-1.37-1.23Z"/><path class="cls-2" d="M47.32,49.61,45.51,51.8a.9.9,0,0,0,.11,1.28h0a.87.87,0,0,0,.58.22.91.91,0,0,0,.71-.34l1.81-2.18a.92.92,0,0,0-1.37-1.23Z"/><path class="cls-2" d="M51.37,49.61,49.55,51.8a.92.92,0,0,0,.12,1.29.9.9,0,0,0,.59.22A1,1,0,0,0,51,53l1.81-2.18a.92.92,0,0,0-1.37-1.23Z"/><path class="cls-2" d="M18.61,49.61a.92.92,0,1,0-1.46,1.13l.05,0L19,53a.92.92,0,0,0,.71.34.94.94,0,0,0,.59-.22.93.93,0,0,0,.12-1.29Z"/><path class="cls-2" d="M14.56,49.61a.92.92,0,1,0-1.41,1.18L14.94,53a1,1,0,0,0,.71.34.94.94,0,0,0,.59-.22.93.93,0,0,0,.12-1.29Z"/><path class="cls-2" d="M10.51,49.61A.92.92,0,1,0,9.1,50.79L10.94,53a.9.9,0,0,0,.7.34.94.94,0,0,0,.59-.22.93.93,0,0,0,.12-1.29Z"/><path class="cls-2" d="M51.28,6.68c-2.62-3.41-9.67.88-19.44,8.38a67.21,67.21,0,0,0-10.9,10.08,2.31,2.31,0,0,0-1.67.42l-1.34,1A2.37,2.37,0,0,0,17,28.11a2.15,2.15,0,0,0,0,.62l-3.68.86a1,1,0,0,0-.7.62L10.2,37.15a1.14,1.14,0,0,0,1,1.38h.08L18.62,38a1,1,0,0,0,.78-.51L21.27,34a2.84,2.84,0,0,0,.51.05,2.37,2.37,0,0,0,1.4-.46l1.34-1a2.34,2.34,0,0,0,.86-1.31,67,67,0,0,0,12.76-8C48.2,15.58,53.94,10.11,51.28,6.68ZM17.94,36.12l-5.49.41,1.82-5.19,3.67-.85,1.76,2.36ZM23.35,31,22,32a.36.36,0,0,1-.51,0,.23.23,0,0,1-.07-.1L19,28.69a.37.37,0,0,1,0-.27.38.38,0,0,1,.17-.28l1.33-1,.11-.05.78.54,2.07,2.79.13.38h0a.4.4,0,0,1-.16.24Zm13.59-9.29a68.11,68.11,0,0,1-12,7.57h0l-2.3-3.19A67.55,67.55,0,0,1,33,16.59C42.8,9.08,48.43,6.15,49.74,7.86,51.72,10.42,41,18.66,36.94,21.75Z"/><path class="cls-1" d="M38.68,15.12l-9.47,7.3A1,1,0,0,0,29,23.78a1,1,0,0,0,.76.38,1,1,0,0,0,.59-.2l9.47-7.26a1,1,0,0,0,.52-1.31,1,1,0,0,0-1.7-.23Z"/><path class="cls-1" d="M42.24,12.42l-1.1.84a1,1,0,0,0-.06,1.41,1,1,0,0,0,.65.32,1,1,0,0,0,.59-.2L43.41,14a1,1,0,0,0-.75-1.86A1,1,0,0,0,42.24,12.42Z"/><path class="cls-2" d="M15.63,32.9a1,1,0,0,0-.28.68,1,1,0,0,0,1,1,1,1,0,0,0,1-1,1,1,0,0,0-.29-.68A1,1,0,0,0,15.63,32.9Z"/><path class="cls-2" d="M10.08,7.42h4a1,1,0,0,0,.52-1.93.92.92,0,0,0-.52,0h-4a1,1,0,1,0-.53,1.93A1,1,0,0,0,10.08,7.42Z"/><path class="cls-2" d="M20.65,11a1,1,0,0,0-1-1H10.08a1,1,0,1,0-.53,1.93,1,1,0,0,0,.53,0h9.61A1,1,0,0,0,20.65,11Z"/><path class="cls-2" d="M52,32.21H47.94a1,1,0,0,0,0,1.93h4a1,1,0,0,0,.52-1.93.92.92,0,0,0-.52,0Z"/><path class="cls-2" d="M52,36.73H42.41a1,1,0,0,0-.53,1.93,1,1,0,0,0,.53,0H52a1,1,0,0,0,.52-1.93A.92.92,0,0,0,52,36.73Z"/></g></g></svg>