<svg xmlns="http://www.w3.org/2000/svg" viewBox="0 0 60.01 60"><defs><style>.cls-1{fill:#45495f;}.cls-2{fill:#1dbf73;}</style></defs><g id="Layer_2" data-name="Layer 2"><g id="Layer_1-2" data-name="Layer 1"><path class="cls-1" d="M58.57,55.16a12.48,12.48,0,0,1-4.81-6.84A29.66,29.66,0,0,0,60,30,30,30,0,1,0,44.43,56.3c6.07,2.18,13.46.74,13.78.68a1,1,0,0,0,.36-1.82Zm-13.85-.89a1,1,0,0,0-.86.07A28,28,0,1,1,58,30a27.66,27.66,0,0,1-6.14,17.48,1,1,0,0,0-.18.89,15.35,15.35,0,0,0,3.92,7C53,55.59,48.44,55.74,44.72,54.27Z"/><path class="cls-1" d="M30,4V6A24,24,0,0,1,54,30h2A26,26,0,0,0,30,4Z"/><path class="cls-1" d="M6,30H4A26,26,0,0,0,30,56V54A24,24,0,0,1,6,30Z"/><rect class="cls-1" x="32.01" y="54" width="2" height="2"/><path class="cls-2" d="M30.5,18.05A9,9,0,0,0,22,12H15v3a9,9,0,0,0,9,9h5v5.09a8.62,8.62,0,0,0-9.67,1.17,6.94,6.94,0,0,0-.68,9.8,7.27,7.27,0,0,0,.68.68L30,50.34l10.68-9.61a7,7,0,0,0,.67-9.8,6.06,6.06,0,0,0-.67-.67A8.64,8.64,0,0,0,31,29.09V26h5a9,9,0,0,0,9-9V14H38A9,9,0,0,0,30.5,18.05Zm8.84,13.68a5,5,0,0,1,.54,7,4.59,4.59,0,0,1-.54.54L30,47.65l-9.32-8.4a4.93,4.93,0,0,1-.55-7,4.76,4.76,0,0,1,.55-.55,6.65,6.65,0,0,1,8.65,0l.67.62.68-.62A6.65,6.65,0,0,1,39.34,31.73ZM17,15V14h5a7,7,0,0,1,7,7v.13l-7.44-5-1.11,1.66L26.71,22H24A7,7,0,0,1,17,15Zm26,2a7,7,0,0,1-7,7h-2.7l6.25-4.17-1.11-1.66-7.44,5V23a7,7,0,0,1,7-7h5Z"/><path class="cls-1" d="M38.72,37.71a3,3,0,0,0,1-2.45,4.87,4.87,0,0,0-2.12-3.09l-1.12,1.66c.3.2,1.18.94,1.25,1.63a1,1,0,0,1-.4.83l-4,4,1.42,1.42Z"/><rect class="cls-1" x="30.6" y="42" width="2.83" height="2" transform="translate(-21.03 35.23) rotate(-45)"/><rect class="cls-1" x="26.01" y="4" width="2" height="2"/></g></g></svg>