<svg xmlns="http://www.w3.org/2000/svg" viewBox="0 0 480 400"><defs><style>.cls-1{fill:#45495f;}.cls-2{fill:#1dbf73;}</style></defs><g id="Layer_2" data-name="Layer 2"><g id="Layer_1-2" data-name="Layer 1"><path class="cls-1" d="M350,240a10,10,0,0,1-10-10V130a10,10,0,0,1,12.75-9.61l70,20A10,10,0,0,1,430,150v60a10,10,0,0,1-7.25,9.62l-70,20A10.36,10.36,0,0,1,350,240Zm10-96.74v73.48l50-14.28V157.54Z"/><path class="cls-1" d="M325,350a35,35,0,0,1-35-35V65a35,35,0,0,1,70,0V315A35,35,0,0,1,325,350Zm0-300a15,15,0,0,0-15,15V315a15,15,0,0,0,30,0V65A15,15,0,0,0,325,50Z"/><path class="cls-1" d="M300,300a10.11,10.11,0,0,1-3-.45l-160-50a10,10,0,0,1-7-9.55V120a10,10,0,0,1,7-9.54l160-50A10,10,0,0,1,310,70V290a10,10,0,0,1-10,10ZM150,232.65,290,276.4V83.6L150,127.35Z"/><path class="cls-1" d="M140,250H50a10,10,0,0,1-10-10V120a10,10,0,0,1,10-10h90a10,10,0,0,1,10,10V240A10,10,0,0,1,140,250ZM60,230h70V130H60Z"/><path class="cls-1" d="M50,230H10A10,10,0,0,1,0,220V140a10,10,0,0,1,10-10H50a10,10,0,0,1,10,10v80A10,10,0,0,1,50,230ZM20,210H40V150H20Z"/><path class="cls-1" d="M150,400H100a10,10,0,0,1-9.81-8l-30-150A10,10,0,0,1,70,230h50a10,10,0,0,1,9.81,8l29.87,149.35A10.21,10.21,0,0,1,160,390,10,10,0,0,1,150,400ZM108.2,380h29.6l-26-130H82.2Z"/><path class="cls-2" d="M430,50a10,10,0,0,1-6-18L464,2a10,10,0,0,1,12,16L436,48A9.94,9.94,0,0,1,430,50Z"/><path class="cls-2" d="M410,110a10,10,0,0,1-6-18l40-30a10,10,0,0,1,12,16l-40,30A9.94,9.94,0,0,1,410,110Z"/><path class="cls-2" d="M470,360a9.94,9.94,0,0,1-6-2l-40-30a10,10,0,1,1,12-16l40,30a10,10,0,0,1-6,18Z"/><path class="cls-2" d="M450,300a9.94,9.94,0,0,1-6-2l-40-30a10,10,0,1,1,12-16l40,30a10,10,0,0,1-6,18Z"/><rect class="cls-2" x="70" y="140" width="20" height="20"/><rect class="cls-2" x="100" y="140" width="20" height="20"/></g></g></svg>