<svg xmlns="http://www.w3.org/2000/svg" viewBox="0 0 24 20.17"><defs><style>.cls-1{fill:#45495f;}.cls-2{fill:#1dbf73;}</style></defs><g id="Layer_2" data-name="Layer 2"><g id="Layer_2-2" data-name="Layer 2"><path class="cls-1" d="M22.93,0H1.07A1.07,1.07,0,0,0,0,1.07v14a1.07,1.07,0,0,0,1.07,1.07H10v3H7.31a.5.5,0,0,0-.5.5.5.5,0,0,0,.5.5h9.58a.5.5,0,0,0,.5-.5.5.5,0,0,0-.5-.5H14v-3h8.93A1.07,1.07,0,0,0,24,15.1v-14A1.07,1.07,0,0,0,22.93,0ZM23,1.07V12.5H12.5V1H22.93a.07.07,0,0,1,.07.07ZM1.07,1H11.5V12.5H1ZM13,19.17H11v-3h2Zm10-4L1,15.1V13.5H23Z"/><path class="cls-2" d="M8.48,7.42a2.64,2.64,0,1,0-3.84,0A3.74,3.74,0,0,0,3,10.5a.5.5,0,0,0,.5.5H9.68a.51.51,0,0,0,.5-.5A3.75,3.75,0,0,0,8.48,7.42ZM4,10A2.38,2.38,0,0,1,5.76,8.07a.5.5,0,0,0,.15-1,1.63,1.63,0,1,1,1.3,0A.5.5,0,0,0,7,7.78a.51.51,0,0,0,.41.29A2.38,2.38,0,0,1,9.12,10Z"/><path class="cls-2" d="M14.35,10.5a.51.51,0,0,0,.5.5h6.23a.5.5,0,0,0,.5-.5,3.74,3.74,0,0,0-1.69-3.08,2.64,2.64,0,1,0-3.84,0A3.75,3.75,0,0,0,14.35,10.5Zm2.81-2.43a.5.5,0,0,0,.16-1,1.63,1.63,0,1,1,2.15-.85,1.68,1.68,0,0,1-.85.85.5.5,0,0,0,.15,1A2.38,2.38,0,0,1,20.52,10H15.41a2.4,2.4,0,0,1,1.75-1.93Z"/></g></g></svg>