<svg xmlns="http://www.w3.org/2000/svg" viewBox="0 0 44 44"><defs><style>.cls-1{fill:#454a60;}.cls-2{fill:#1dbf73;}</style></defs><g id="Layer_2" data-name="Layer 2"><g id="Layer_1-2" data-name="Layer 1"><path class="cls-1" d="M41,0H3A3,3,0,0,0,0,3V41a3,3,0,0,0,3,3H41a3,3,0,0,0,3-3V3A3,3,0,0,0,41,0ZM3,2H41a1,1,0,0,1,1,1v9H2V3A1,1,0,0,1,3,2ZM41,42H3a1,1,0,0,1-1-1V14H42V41A1,1,0,0,1,41,42Z"/><path class="cls-2" d="M7,10A3,3,0,1,0,4,7,3,3,0,0,0,7,10ZM7,6A1,1,0,1,1,6,7,1,1,0,0,1,7,6Z"/><path class="cls-1" d="M15,10a3,3,0,1,0-3-3A3,3,0,0,0,15,10Zm0-4a1,1,0,1,1-1,1A1,1,0,0,1,15,6Z"/><rect class="cls-2" x="24" y="6" width="16" height="2"/><path class="cls-2" d="M14.71,23.29a1,1,0,0,0-1.42,0l-4,4a1,1,0,0,0,0,1.42l4,4a1,1,0,0,0,1.42,0,1,1,0,0,0,0-1.42L11.41,28l3.3-3.29A1,1,0,0,0,14.71,23.29Z"/><path class="cls-2" d="M30.71,23.29a1,1,0,0,0-1.42,1.42L32.59,28l-3.3,3.29a1,1,0,0,0,0,1.42,1,1,0,0,0,1.42,0l4-4a1,1,0,0,0,0-1.42Z"/><path class="cls-1" d="M25.37,20.07a1,1,0,0,0-1.3.56l-6,15a1,1,0,0,0,.56,1.3A1,1,0,0,0,19,37a1,1,0,0,0,.93-.63l6-15A1,1,0,0,0,25.37,20.07Z"/></g></g></svg>