<svg xmlns="http://www.w3.org/2000/svg" viewBox="0 0 62.8 62.8"><defs><style>.cls-1{fill:#45495f;}.cls-2{fill:#1dbf73;}</style></defs><g id="Layer_2" data-name="Layer 2"><g id="Layer_1-2" data-name="Layer 1"><path class="cls-1" d="M3.5,62.8A3.5,3.5,0,0,1,0,59.3V55.4A1.34,1.34,0,0,1,1.4,54a1.34,1.34,0,0,1,1.4,1.4v3.9a.71.71,0,0,0,.7.7H59.3a.71.71,0,0,0,.7-.7V13.44H55.5a1.4,1.4,0,1,1,0-2.8H60V3.5a.71.71,0,0,0-.7-.7H21.9a1.34,1.34,0,0,1-1.4-1.4A1.34,1.34,0,0,1,21.9,0H59.3a3.5,3.5,0,0,1,3.5,3.5V59.3a3.5,3.5,0,0,1-3.5,3.5Z"/><path class="cls-1" d="M1.4,46.5A1.34,1.34,0,0,1,0,45.1V3.5A3.5,3.5,0,0,1,3.5,0H16.71a1.34,1.34,0,0,1,1.4,1.4,1.34,1.34,0,0,1-1.4,1.4H3.5a.71.71,0,0,0-.7.7v7.14H50.13a1.4,1.4,0,0,1,0,2.8H2.8V45.1A1.34,1.34,0,0,1,1.4,46.5Z"/><path class="cls-1" d="M1.4,52.7A1.34,1.34,0,0,1,0,51.3V49.4A1.34,1.34,0,0,1,1.4,48a1.34,1.34,0,0,1,1.4,1.4v1.9A1.34,1.34,0,0,1,1.4,52.7Z"/><path class="cls-2" d="M20.4,8.2A1.34,1.34,0,0,1,19,6.8a1.34,1.34,0,0,1,1.4-1.4h35a1.34,1.34,0,0,1,1.4,1.4,1.34,1.34,0,0,1-1.4,1.4Z"/><path class="cls-2" d="M6.34,22.75a1.33,1.33,0,0,1-1.4-1.4v-2.8A2.63,2.63,0,0,1,7.54,16h2.8a1.4,1.4,0,0,1,0,2.8H7.74v2.6A1.34,1.34,0,0,1,6.34,22.75Z"/><path class="cls-2" d="M48,57.4a1.4,1.4,0,0,1,0-2.8h2a1.4,1.4,0,0,1,0,2.8Z"/><path class="cls-2" d="M54,57.4a1.4,1.4,0,0,1,0-2.8h.6V52a1.4,1.4,0,0,1,2.8,0v2.9a2.45,2.45,0,0,1-2.5,2.5Z"/><path class="cls-2" d="M25,50.35A3,3,0,0,1,23.62,50,2.84,2.84,0,0,1,22,47.38v-2.3a1.4,1.4,0,0,1,2.8,0v2.3a.25.25,0,0,0,.26.29.22.22,0,0,0,.12,0L41.79,37.24a.18.18,0,0,0,.11-.17.32.32,0,0,0-.06-.22L25.09,26.42a.84.84,0,0,0-.18,0c-.21,0-.21.28-.21.29V38.9a1.4,1.4,0,1,1-2.8,0V26.68A3.26,3.26,0,0,1,23.49,24,3,3,0,0,1,25,23.65a3.14,3.14,0,0,1,1.66.49l16.7,10.4a2.77,2.77,0,0,1,1.49,2.54,2.86,2.86,0,0,1-1.4,2.55L26.71,49.92A3.46,3.46,0,0,1,25,50.35Z"/><path class="cls-1" d="M32.74,39.6a1.35,1.35,0,0,1-1.17-.6,2,2,0,0,1,.32-2.07l.06-.07h0l-2-1.13a1.59,1.59,0,0,1-.6-.92,1.3,1.3,0,0,1,.18-1.07,1.54,1.54,0,0,1,1.21-.6,1.42,1.42,0,0,1,.72.2l4,2.4a1.47,1.47,0,0,1,0,2.48l-2,1.21a1.87,1.87,0,0,1-.77.17Z"/><circle class="cls-2" cx="15.31" cy="6.8" r="1.4"/><circle class="cls-1" cx="11.31" cy="6.8" r="1.4"/><circle class="cls-2" cx="7.31" cy="6.8" r="1.4"/></g></g></svg>