<svg xmlns="http://www.w3.org/2000/svg" viewBox="0 0 56 56"><defs><style>.cls-1{fill:#45495f;}.cls-2{fill:#1dbf73;}</style></defs><g id="Layer_2" data-name="Layer 2"><g id="Layer_1-2" data-name="Layer 1"><path class="cls-1" d="M28,4a4,4,0,0,0-4-4H4A4,4,0,0,0,0,4V24a4,4,0,0,0,4,4H24a4,4,0,0,0,4-4ZM26,24a2,2,0,0,1-2,2H4a2,2,0,0,1-2-2V4A2,2,0,0,1,4,2H24a2,2,0,0,1,2,2Z"/><path class="cls-1" d="M52,28H32a4,4,0,0,0-4,4V52a4,4,0,0,0,4,4H52a4,4,0,0,0,4-4V32A4,4,0,0,0,52,28Zm2,24a2,2,0,0,1-2,2H32a2,2,0,0,1-2-2V32a2,2,0,0,1,2-2H52a2,2,0,0,1,2,2Z"/><path class="cls-2" d="M14.92,7.62a1,1,0,0,0-1.84,0L10.3,14.29A1,1,0,0,0,10,15h0L8.08,19.62a1,1,0,1,0,1.84.76L11.75,16h4.5l1.83,4.38A1,1,0,0,0,19,21a.84.84,0,0,0,.38-.08,1,1,0,0,0,.54-1.3ZM12.58,14,14,10.6,15.42,14Z"/><path class="cls-2" d="M47,39a1,1,0,0,0,0-2H43V36a1,1,0,0,0-2,0v1H37a1,1,0,0,0,0,2h1a10,10,0,0,0,2.53,6.11,13.47,13.47,0,0,1-3.84,1.94,1,1,0,0,0-.63,1.27A1,1,0,0,0,37,49a1.25,1.25,0,0,0,.32,0A15.49,15.49,0,0,0,42,46.51,15.49,15.49,0,0,0,46.68,49,1.25,1.25,0,0,0,47,49a1,1,0,0,0,1-.68,1,1,0,0,0-.63-1.27,13.33,13.33,0,0,1-3.84-1.93A10,10,0,0,0,46,39Zm-5,4.78A7.83,7.83,0,0,1,40,39H44A7.86,7.86,0,0,1,42,43.78Z"/><path class="cls-1" d="M31,15a1,1,0,0,0,.1.42.86.86,0,0,0,.07.1.71.71,0,0,0,.19.23s0,0,0,.05l4,3a1,1,0,0,0,.6.2,1,1,0,0,0,.8-.4,1,1,0,0,0-.2-1.4L35,16h3c.29,0,7,.09,7,8a1,1,0,0,0,2,0c0-9.89-8.91-10-9-10H35l1.6-1.2a1,1,0,1,0-1.2-1.6l-4,3s0,0,0,.05a.71.71,0,0,0-.19.23.86.86,0,0,0-.07.1A1,1,0,0,0,31,15Z"/><path class="cls-1" d="M25,41a1,1,0,0,0-.1-.42.86.86,0,0,0-.07-.1.71.71,0,0,0-.19-.23s0,0,0,0l-4-3a1,1,0,1,0-1.2,1.6L21,40H18c-.29,0-7-.09-7-8a1,1,0,0,0-2,0c0,9.89,8.91,10,9,10h3l-1.6,1.2a1,1,0,0,0-.2,1.4,1,1,0,0,0,.8.4,1,1,0,0,0,.6-.2l4-3s0,0,0,0a.71.71,0,0,0,.19-.23.86.86,0,0,0,.07-.1A1,1,0,0,0,25,41Z"/></g></g></svg>